<?xml version="1.0" encoding="UTF-8" standalone="no"?>
<!-- Created with Inkscape (http://www.inkscape.org/) -->

<svg
   xmlns:dc="http://purl.org/dc/elements/1.1/"
   xmlns:cc="http://creativecommons.org/ns#"
   xmlns:rdf="http://www.w3.org/1999/02/22-rdf-syntax-ns#"
   xmlns:svg="http://www.w3.org/2000/svg"
   xmlns="http://www.w3.org/2000/svg"
   version="1.1"
   width="688"
   height="688"
   id="svg3082"
   xml:space="preserve"><metadata
     id="metadata3088"><rdf:RDF><cc:Work
         rdf:about=""><dc:format>image/svg+xml</dc:format><dc:type
           rdf:resource="http://purl.org/dc/dcmitype/StillImage" /><dc:title></dc:title></cc:Work></rdf:RDF></metadata><defs
     id="defs3086" /><g
     transform="matrix(1.1966882,0,0,-1.1988932,-7.7545295,821.31769)"
     id="g3148"
     style="fill:#FFFFFF;stroke:none"><g
       transform="scale(0.24,0.24)"
       id="g3092"
       style="fill:#FFFFFF;stroke:none"><path
         d="m 133,1488.84 c 0,-457.5 307.5,-858.004 749.75,-975.504 110.25,-33 225.25,-50 341.25,-50 449,0 860.5,252 1065,651.754 -228.5,-362.254 -627.5,-582.254 -1056,-582.254 -20.5,0 -37,0.5 -49.5,1.5 -477.5,18.5 -855,411.5 -855,889.004 0,70.5 8,140.5 24.5,208 66,275.5 312,469.5 595.5,469.5 39.5,0 79.5,-3.5 118.5,-11.75 -4.5,-19.25 -6.5,-38.75 -6.5,-58.75 0,-145.5 118,-264 264,-264 96,0 185,52.5 231.25,136.75 36.25,51.25 55.75,112.75 55.75,175.75 0,102.5 -51,198.5 -135.75,255.5 -149.3818,107.1826 -302.5734,154.4565 -463,140.8782 C 509.5,2410.2182 133,1996.84 133,1488.84 z"
         id="path3096"
         style="fill:#FFFFFF;stroke:none" /><path
         d="m 500,1411.84 c -3.69132,205.9358 148.9317,411.0152 321,416 9,0 17.5,0 26.25,-1.25 -0.75,-0.25 0.75,-0.25 5.25,-0.25 145.5,0 264,-118 264,-264 0,-115.5 -75.5,-218 -186.25,-252 84.25,-248 317.25,-415.004 579.75,-415.004 58.5,0 117,8.5 173.75,25.25 378.25,111.254 637.75,458.754 637.75,852.754 0,144.5 -35.5,286.5 -102.5,414 -167.3958,319.4268 -462.6401,547.2998 -805.2172,632.4538 -37.4995,11.4851 -87.4016,18.5155 -105.9981,34.6365 518.1976,-36.0865 958.2267,-404.4561 1079.9653,-916.0903 22.75,-85 34.75,-173 34.75,-262 0,-558 -452.5,-1010.504 -1010.5,-1010.504 -315,0 -611.5,147 -802,396.504 -71.5,102.5 -110,224.5 -110,349.5 z"
         id="path3098"
         style="fill:#FFFFFF;stroke:none" /><path
         d="m 1681,1104.84 c -216.6937,-43.6975 -362.2288,26.7034 -413.25,146 -24.75,41 -37.75,88.5 -37.75,136.5 0,146 118,264 264,264 66.5,0 130.5,-25 179.25,-70.25 98.25,111.25 152.25,254.25 152.25,402.75 0,168.5 -69.5,329 -191,444.5 -165,157 -384.5,244.5 -612.5,244.5 -306,0 -590,-156.5 -752.5,-414.5 -126.5,-199 -193.5,-431 -193.5,-668 0,-202 49,-401 142.5,-579.5 -125,193.5 -191.5,419 -191.5,649.5 0,329.5 135,644 374,869.25 189.5,189.25 446.5,295.75 715,295.75 558,0 1010.5,-452 1010.5,-1010.5 0,-133 -26.5,-264.5 -78,-387 -72.5,-154 -205.5,-271.5 -367.5,-323 z"
         id="path3114"
         style="fill:#FFFFFF;stroke:none" /><path
         d="m 220,1816.84 0,0"
         id="path3130"
         style="fill:#FFFFFF;stroke:none" /></g></g></svg>
